<svg width="32" height="32" viewBox="0 0 32 32" fill="none" xmlns="http://www.w3.org/2000/svg">
  <!-- Main Circle Background -->
  <circle cx="16" cy="16" r="16" fill="#15803d"/> <!-- primary-700 green -->
  
  <!-- "G" shape formed by paths -->
  <path d="M24 16C24 20.4183 20.4183 24 16 24C11.5817 24 8 20.4183 8 16C8 11.5817 11.5817 8 16 8C18.2091 8 20.2091 8.89543 21.6569 10.3431" stroke="white" stroke-width="3" stroke-linecap="round"/>
  
  <!-- Leaf element inside the G -->
  <path d="M14 16C14 16 16 11 20 11C20 11 18 16 14 16Z" fill="#86efac"/> <!-- primary-300 light green -->
  <path d="M14 16C14 16 11 18 11 22C11 22 16 20 14 16Z" fill="#4ade80"/> <!-- primary-400 mid green -->
  
  <!-- Connecting line to finish G look -->
  <path d="M24 16H18" stroke="white" stroke-width="3" stroke-linecap="round"/>
</svg>
